<?xml version="1.0" encoding="UTF-8"?>
<svg xmlns="http://www.w3.org/2000/svg" width="201" height="62" viewBox="0 0 201 62" fill="none">
  <path d="M17.7386 10.0019L2.53245 18.9696C2.43972 19.0243 2.38281 19.1239 2.38281 19.2316V37.1783C2.38281 37.4136 2.63869 37.5598 2.84142 37.4402L18.0475 28.4725C18.1403 28.4178 18.1972 28.3182 18.1972 28.2106V10.2639C18.1972 10.0285 17.9413 9.88235 17.7386 10.0019Z" fill="white" stroke="white" stroke-width="1.21649"></path>
  <path d="M40.7502 37.3402L40.756 19.2821C40.7561 19.1734 40.6981 19.073 40.604 19.0187L24.9742 9.99483C24.7715 9.87779 24.5181 10.024 24.5181 10.2581L24.5123 28.3162C24.5122 28.4249 24.5702 28.5253 24.6643 28.5796L40.294 37.6035C40.4968 37.7205 40.7502 37.5743 40.7502 37.3402Z" fill="white" stroke="white" stroke-width="1.21649"></path>
  <path d="M37.1964 41.6326L21.5605 32.5986C21.4664 32.5442 21.3504 32.5442 21.2563 32.5985L5.62658 41.6224C5.42387 41.7394 5.42382 42.032 5.62649 42.1491L21.2623 51.1831C21.3564 51.2375 21.4724 51.2375 21.5665 51.1832L37.1963 42.1593C37.399 42.0423 37.399 41.7497 37.1964 41.6326Z" fill="white" stroke="white" stroke-width="1.21649"></path>
  <path d="M54.7319 42.4434V19.883H57.4638V40.0199H67.9509V42.4434H54.7319ZM74.5716 19.883V42.4434H71.8397V19.883H74.5716ZM79.708 42.4434V19.883H93.2354V22.3065H82.4399V29.9294H92.2219V32.3529H82.4399V42.4434H79.708ZM97.5731 42.4434V19.883H111.189V22.3065H100.305V29.9294H110.484V32.3529H100.305V40.0199H111.365V42.4434H97.5731ZM115.265 42.4434V19.883H119.352V29.4337H129.806V19.883H133.903V42.4434H129.806V32.8596H119.352V42.4434H115.265ZM152.229 19.883H156.315V34.6221C156.315 36.2378 155.933 37.6588 155.17 38.8853C154.413 40.1117 153.348 41.0701 151.975 41.7604C150.602 42.4434 148.997 42.7848 147.161 42.7848C145.318 42.7848 143.71 42.4434 142.336 41.7604C140.963 41.0701 139.898 40.1117 139.142 38.8853C138.385 37.6588 138.007 36.2378 138.007 34.6221V19.883H142.094V34.2807C142.094 35.2207 142.3 36.0579 142.711 36.7923C143.129 37.5266 143.717 38.1031 144.473 38.5217C145.23 38.933 146.126 39.1386 147.161 39.1386C148.197 39.1386 149.093 38.933 149.849 38.5217C150.613 38.1031 151.2 37.5266 151.612 36.7923C152.023 36.0579 152.229 35.2207 152.229 34.2807V19.883ZM160.416 42.4434V19.883H169.053C170.683 19.883 172.038 20.1401 173.117 20.6541C174.204 21.1608 175.016 21.8548 175.552 22.7361C176.095 23.6174 176.367 24.6161 176.367 25.7324C176.367 26.6504 176.191 27.4362 175.838 28.0898C175.486 28.736 175.012 29.2611 174.417 29.665C173.822 30.069 173.158 30.359 172.423 30.5353V30.7556C173.224 30.7997 173.991 31.0457 174.726 31.4937C175.468 31.9343 176.073 32.5585 176.543 33.3663C177.013 34.1742 177.248 35.1509 177.248 36.2965C177.248 37.4642 176.966 38.5144 176.4 39.4471C175.835 40.3724 174.983 41.1031 173.845 41.6392C172.706 42.1753 171.274 42.4434 169.548 42.4434H160.416ZM164.503 39.0285H168.898C170.382 39.0285 171.45 38.7457 172.104 38.1802C172.765 37.6074 173.095 36.873 173.095 35.9771C173.095 35.3088 172.93 34.7066 172.6 34.1705C172.269 33.6271 171.799 33.2011 171.19 32.8927C170.58 32.5769 169.853 32.419 169.009 32.419H164.503V39.0285ZM164.503 29.4778H168.546C169.251 29.4778 169.886 29.3493 170.452 29.0922C171.017 28.8278 171.461 28.457 171.785 27.9796C172.115 27.4949 172.28 26.9221 172.28 26.2612C172.28 25.3872 171.972 24.6675 171.355 24.1021C170.745 23.5366 169.838 23.2538 168.634 23.2538H164.503V29.4778Z" fill="#FAFAFA"></path>
</svg>
